M48
;TYPE=PLATED
METRIC
T01C1.000
T02C1.300
%
G90
T01
X16.1900Y236.0000
X18.7300Y236.0000
X21.2700Y236.0000
X23.8100Y236.0000
X40.1900Y236.0000
X42.7300Y236.0000
X45.2700Y236.0000
X47.8100Y236.0000
X64.1900Y236.0000
X66.7300Y236.0000
X69.2700Y236.0000
X71.8100Y236.0000
X88.1900Y236.0000
X90.7300Y236.0000
X93.2700Y236.0000
X95.8100Y236.0000
X112.1900Y236.0000
X114.7300Y236.0000
X117.2700Y236.0000
X119.8100Y236.0000
X136.1900Y236.0000
X138.7300Y236.0000
X141.2700Y236.0000
X143.8100Y236.0000
X160.1900Y236.0000
X162.7300Y236.0000
X165.2700Y236.0000
X167.8100Y236.0000
X184.1900Y236.0000
X186.7300Y236.0000
X189.2700Y236.0000
X191.8100Y236.0000
X208.1900Y236.0000
X210.7300Y236.0000
X213.2700Y236.0000
X215.8100Y236.0000
X232.1900Y236.0000
X234.7300Y236.0000
X237.2700Y236.0000
X239.8100Y236.0000
X256.1900Y236.0000
X258.7300Y236.0000
X261.2700Y236.0000
X263.8100Y236.0000
X280.1900Y236.0000
X282.7300Y236.0000
X285.2700Y236.0000
X287.8100Y236.0000
X304.1900Y236.0000
X306.7300Y236.0000
X309.2700Y236.0000
X311.8100Y236.0000
X328.1900Y236.0000
X330.7300Y236.0000
X333.2700Y236.0000
X335.8100Y236.0000
X352.1900Y236.0000
X354.7300Y236.0000
X357.2700Y236.0000
X359.8100Y236.0000
X376.1900Y236.0000
X378.7300Y236.0000
X381.2700Y236.0000
X383.8100Y236.0000
X383.8100Y212.0000
X381.2700Y212.0000
X378.7300Y212.0000
X376.1900Y212.0000
X359.8100Y212.0000
X357.2700Y212.0000
X354.7300Y212.0000
X352.1900Y212.0000
X335.8100Y212.0000
X333.2700Y212.0000
X330.7300Y212.0000
X328.1900Y212.0000
X311.8100Y212.0000
X309.2700Y212.0000
X306.7300Y212.0000
X304.1900Y212.0000
X287.8100Y212.0000
X285.2700Y212.0000
X282.7300Y212.0000
X280.1900Y212.0000
X263.8100Y212.0000
X261.2700Y212.0000
X258.7300Y212.0000
X256.1900Y212.0000
X239.8100Y212.0000
X237.2700Y212.0000
X234.7300Y212.0000
X232.1900Y212.0000
X215.8100Y212.0000
X213.2700Y212.0000
X210.7300Y212.0000
X208.1900Y212.0000
X191.8100Y212.0000
X189.2700Y212.0000
X186.7300Y212.0000
X184.1900Y212.0000
X167.8100Y212.0000
X165.2700Y212.0000
X162.7300Y212.0000
X160.1900Y212.0000
X143.8100Y212.0000
X141.2700Y212.0000
X138.7300Y212.0000
X136.1900Y212.0000
X119.8100Y212.0000
X117.2700Y212.0000
X114.7300Y212.0000
X112.1900Y212.0000
X95.8100Y212.0000
X93.2700Y212.0000
X90.7300Y212.0000
X88.1900Y212.0000
X71.8100Y212.0000
X69.2700Y212.0000
X66.7300Y212.0000
X64.1900Y212.0000
X47.8100Y212.0000
X45.2700Y212.0000
X42.7300Y212.0000
X40.1900Y212.0000
X23.8100Y212.0000
X21.2700Y212.0000
X18.7300Y212.0000
X16.1900Y212.0000
X16.1900Y188.0000
X18.7300Y188.0000
X21.2700Y188.0000
X23.8100Y188.0000
X40.1900Y188.0000
X42.7300Y188.0000
X45.2700Y188.0000
X47.8100Y188.0000
X64.1900Y188.0000
X66.7300Y188.0000
X69.2700Y188.0000
X71.8100Y188.0000
X88.1900Y188.0000
X90.7300Y188.0000
X93.2700Y188.0000
X95.8100Y188.0000
X112.1900Y188.0000
X114.7300Y188.0000
X117.2700Y188.0000
X119.8100Y188.0000
X136.1900Y188.0000
X138.7300Y188.0000
X141.2700Y188.0000
X143.8100Y188.0000
X160.1900Y188.0000
X162.7300Y188.0000
X165.2700Y188.0000
X167.8100Y188.0000
X184.1900Y188.0000
X186.7300Y188.0000
X189.2700Y188.0000
X191.8100Y188.0000
X208.1900Y188.0000
X210.7300Y188.0000
X213.2700Y188.0000
X215.8100Y188.0000
X232.1900Y188.0000
X234.7300Y188.0000
X237.2700Y188.0000
X239.8100Y188.0000
X256.1900Y188.0000
X258.7300Y188.0000
X261.2700Y188.0000
X263.8100Y188.0000
X280.1900Y188.0000
X282.7300Y188.0000
X285.2700Y188.0000
X287.8100Y188.0000
X304.1900Y188.0000
X306.7300Y188.0000
X309.2700Y188.0000
X311.8100Y188.0000
X328.1900Y188.0000
X330.7300Y188.0000
X333.2700Y188.0000
X335.8100Y188.0000
X352.1900Y188.0000
X354.7300Y188.0000
X357.2700Y188.0000
X359.8100Y188.0000
X376.1900Y188.0000
X378.7300Y188.0000
X381.2700Y188.0000
X383.8100Y188.0000
X383.8100Y164.0000
X381.2700Y164.0000
X378.7300Y164.0000
X376.1900Y164.0000
X359.8100Y164.0000
X357.2700Y164.0000
X354.7300Y164.0000
X352.1900Y164.0000
X335.8100Y164.0000
X333.2700Y164.0000
X330.7300Y164.0000
X328.1900Y164.0000
X311.8100Y164.0000
X309.2700Y164.0000
X306.7300Y164.0000
X304.1900Y164.0000
X287.8100Y164.0000
X285.2700Y164.0000
X282.7300Y164.0000
X280.1900Y164.0000
X263.8100Y164.0000
X261.2700Y164.0000
X258.7300Y164.0000
X256.1900Y164.0000
X239.8100Y164.0000
X237.2700Y164.0000
X234.7300Y164.0000
X232.1900Y164.0000
X215.8100Y164.0000
X213.2700Y164.0000
X210.7300Y164.0000
X208.1900Y164.0000
X191.8100Y164.0000
X189.2700Y164.0000
X186.7300Y164.0000
X184.1900Y164.0000
X167.8100Y164.0000
X165.2700Y164.0000
X162.7300Y164.0000
X160.1900Y164.0000
X143.8100Y164.0000
X141.2700Y164.0000
X138.7300Y164.0000
X136.1900Y164.0000
X119.8100Y164.0000
X117.2700Y164.0000
X114.7300Y164.0000
X112.1900Y164.0000
X95.8100Y164.0000
X93.2700Y164.0000
X90.7300Y164.0000
X88.1900Y164.0000
X71.8100Y164.0000
X69.2700Y164.0000
X66.7300Y164.0000
X64.1900Y164.0000
X47.8100Y164.0000
X45.2700Y164.0000
X42.7300Y164.0000
X40.1900Y164.0000
X23.8100Y164.0000
X21.2700Y164.0000
X18.7300Y164.0000
X16.1900Y164.0000
X16.1900Y140.0000
X18.7300Y140.0000
X21.2700Y140.0000
X23.8100Y140.0000
X40.1900Y140.0000
X42.7300Y140.0000
X45.2700Y140.0000
X47.8100Y140.0000
X64.1900Y140.0000
X66.7300Y140.0000
X69.2700Y140.0000
X71.8100Y140.0000
X88.1900Y140.0000
X90.7300Y140.0000
X93.2700Y140.0000
X95.8100Y140.0000
X112.1900Y140.0000
X114.7300Y140.0000
X117.2700Y140.0000
X119.8100Y140.0000
X136.1900Y140.0000
X138.7300Y140.0000
X141.2700Y140.0000
X143.8100Y140.0000
X160.1900Y140.0000
X162.7300Y140.0000
X165.2700Y140.0000
X167.8100Y140.0000
X184.1900Y140.0000
X186.7300Y140.0000
X189.2700Y140.0000
X191.8100Y140.0000
X208.1900Y140.0000
X210.7300Y140.0000
X213.2700Y140.0000
X215.8100Y140.0000
X232.1900Y140.0000
X234.7300Y140.0000
X237.2700Y140.0000
X239.8100Y140.0000
X256.1900Y140.0000
X258.7300Y140.0000
X261.2700Y140.0000
X263.8100Y140.0000
X280.1900Y140.0000
X282.7300Y140.0000
X285.2700Y140.0000
X287.8100Y140.0000
X304.1900Y140.0000
X306.7300Y140.0000
X309.2700Y140.0000
X311.8100Y140.0000
X328.1900Y140.0000
X330.7300Y140.0000
X333.2700Y140.0000
X335.8100Y140.0000
X352.1900Y140.0000
X354.7300Y140.0000
X357.2700Y140.0000
X359.8100Y140.0000
X376.1900Y140.0000
X378.7300Y140.0000
X381.2700Y140.0000
X383.8100Y140.0000
X383.8100Y116.0000
X381.2700Y116.0000
X378.7300Y116.0000
X376.1900Y116.0000
X359.8100Y116.0000
X357.2700Y116.0000
X354.7300Y116.0000
X352.1900Y116.0000
X335.8100Y116.0000
X333.2700Y116.0000
X330.7300Y116.0000
X328.1900Y116.0000
X311.8100Y116.0000
X309.2700Y116.0000
X306.7300Y116.0000
X304.1900Y116.0000
X287.8100Y116.0000
X285.2700Y116.0000
X282.7300Y116.0000
X280.1900Y116.0000
X263.8100Y116.0000
X261.2700Y116.0000
X258.7300Y116.0000
X256.1900Y116.0000
X239.8100Y116.0000
X237.2700Y116.0000
X234.7300Y116.0000
X232.1900Y116.0000
X215.8100Y116.0000
X213.2700Y116.0000
X210.7300Y116.0000
X208.1900Y116.0000
X191.8100Y116.0000
X189.2700Y116.0000
X186.7300Y116.0000
X184.1900Y116.0000
X167.8100Y116.0000
X165.2700Y116.0000
X162.7300Y116.0000
X160.1900Y116.0000
X143.8100Y116.0000
X141.2700Y116.0000
X138.7300Y116.0000
X136.1900Y116.0000
X119.8100Y116.0000
X117.2700Y116.0000
X114.7300Y116.0000
X112.1900Y116.0000
X95.8100Y116.0000
X93.2700Y116.0000
X90.7300Y116.0000
X88.1900Y116.0000
X71.8100Y116.0000
X69.2700Y116.0000
X66.7300Y116.0000
X64.1900Y116.0000
X47.8100Y116.0000
X45.2700Y116.0000
X42.7300Y116.0000
X40.1900Y116.0000
X23.8100Y116.0000
X21.2700Y116.0000
X18.7300Y116.0000
X16.1900Y116.0000
X16.1900Y92.0000
X18.7300Y92.0000
X21.2700Y92.0000
X23.8100Y92.0000
X40.1900Y92.0000
X42.7300Y92.0000
X45.2700Y92.0000
X47.8100Y92.0000
X64.1900Y92.0000
X66.7300Y92.0000
X69.2700Y92.0000
X71.8100Y92.0000
X88.1900Y92.0000
X90.7300Y92.0000
X93.2700Y92.0000
X95.8100Y92.0000
X112.1900Y92.0000
X114.7300Y92.0000
X117.2700Y92.0000
X119.8100Y92.0000
X136.1900Y92.0000
X138.7300Y92.0000
X141.2700Y92.0000
X143.8100Y92.0000
X160.1900Y92.0000
X162.7300Y92.0000
X165.2700Y92.0000
X167.8100Y92.0000
X184.1900Y92.0000
X186.7300Y92.0000
X189.2700Y92.0000
X191.8100Y92.0000
X208.1900Y92.0000
X210.7300Y92.0000
X213.2700Y92.0000
X215.8100Y92.0000
X232.1900Y92.0000
X234.7300Y92.0000
X237.2700Y92.0000
X239.8100Y92.0000
X256.1900Y92.0000
X258.7300Y92.0000
X261.2700Y92.0000
X263.8100Y92.0000
X280.1900Y92.0000
X282.7300Y92.0000
X285.2700Y92.0000
X287.8100Y92.0000
X304.1900Y92.0000
X306.7300Y92.0000
X309.2700Y92.0000
X311.8100Y92.0000
X328.1900Y92.0000
X330.7300Y92.0000
X333.2700Y92.0000
X335.8100Y92.0000
X352.1900Y92.0000
X354.7300Y92.0000
X357.2700Y92.0000
X359.8100Y92.0000
X376.1900Y92.0000
X378.7300Y92.0000
X381.2700Y92.0000
X383.8100Y92.0000
X383.8100Y68.0000
X381.2700Y68.0000
X378.7300Y68.0000
X376.1900Y68.0000
X359.8100Y68.0000
X357.2700Y68.0000
X354.7300Y68.0000
X352.1900Y68.0000
X335.8100Y68.0000
X333.2700Y68.0000
X330.7300Y68.0000
X328.1900Y68.0000
X311.8100Y68.0000
X309.2700Y68.0000
X306.7300Y68.0000
X304.1900Y68.0000
X287.8100Y68.0000
X285.2700Y68.0000
X282.7300Y68.0000
X280.1900Y68.0000
X263.8100Y68.0000
X261.2700Y68.0000
X258.7300Y68.0000
X256.1900Y68.0000
X239.8100Y68.0000
X237.2700Y68.0000
X234.7300Y68.0000
X232.1900Y68.0000
X215.8100Y68.0000
X213.2700Y68.0000
X210.7300Y68.0000
X208.1900Y68.0000
X191.8100Y68.0000
X189.2700Y68.0000
X186.7300Y68.0000
X184.1900Y68.0000
X167.8100Y68.0000
X165.2700Y68.0000
X162.7300Y68.0000
X160.1900Y68.0000
X143.8100Y68.0000
X141.2700Y68.0000
X138.7300Y68.0000
X136.1900Y68.0000
X119.8100Y68.0000
X117.2700Y68.0000
X114.7300Y68.0000
X112.1900Y68.0000
X95.8100Y68.0000
X93.2700Y68.0000
X90.7300Y68.0000
X88.1900Y68.0000
X71.8100Y68.0000
X69.2700Y68.0000
X66.7300Y68.0000
X64.1900Y68.0000
X47.8100Y68.0000
X45.2700Y68.0000
X42.7300Y68.0000
X40.1900Y68.0000
X23.8100Y68.0000
X21.2700Y68.0000
X18.7300Y68.0000
X16.1900Y68.0000
X16.1900Y44.0000
X18.7300Y44.0000
X21.2700Y44.0000
X23.8100Y44.0000
X40.1900Y44.0000
X42.7300Y44.0000
X45.2700Y44.0000
X47.8100Y44.0000
X64.1900Y44.0000
X66.7300Y44.0000
X69.2700Y44.0000
X71.8100Y44.0000
X88.1900Y44.0000
X90.7300Y44.0000
X93.2700Y44.0000
X95.8100Y44.0000
X112.1900Y44.0000
X114.7300Y44.0000
X117.2700Y44.0000
X119.8100Y44.0000
X136.1900Y44.0000
X138.7300Y44.0000
X141.2700Y44.0000
X143.8100Y44.0000
X160.1900Y44.0000
X162.7300Y44.0000
X165.2700Y44.0000
X167.8100Y44.0000
X184.1900Y44.0000
X186.7300Y44.0000
X189.2700Y44.0000
X191.8100Y44.0000
X208.1900Y44.0000
X210.7300Y44.0000
X213.2700Y44.0000
X215.8100Y44.0000
X232.1900Y44.0000
X234.7300Y44.0000
X237.2700Y44.0000
X239.8100Y44.0000
X256.1900Y44.0000
X258.7300Y44.0000
X261.2700Y44.0000
X263.8100Y44.0000
X280.1900Y44.0000
X282.7300Y44.0000
X285.2700Y44.0000
X287.8100Y44.0000
X304.1900Y44.0000
X306.7300Y44.0000
X309.2700Y44.0000
X311.8100Y44.0000
X328.1900Y44.0000
X330.7300Y44.0000
X333.2700Y44.0000
X335.8100Y44.0000
X352.1900Y44.0000
X354.7300Y44.0000
X357.2700Y44.0000
X359.8100Y44.0000
X376.1900Y44.0000
X378.7300Y44.0000
X381.2700Y44.0000
X383.8100Y44.0000
X383.8100Y20.0000
X381.2700Y20.0000
X378.7300Y20.0000
X376.1900Y20.0000
X359.8100Y20.0000
X357.2700Y20.0000
X354.7300Y20.0000
X352.1900Y20.0000
X8.0000Y236.0000
X8.0000Y233.4600
X390.0000Y6.0000
X392.5400Y6.0000
T02
X394.0000Y244.0000
X394.0000Y238.9200
X394.0000Y220.0000
X394.0000Y214.9200
X394.0000Y196.0000
X394.0000Y190.9200
X394.0000Y172.0000
X394.0000Y166.9200
X394.0000Y148.0000
X394.0000Y142.9200
X394.0000Y124.0000
X394.0000Y118.9200
X394.0000Y100.0000
X394.0000Y94.9200
X394.0000Y76.0000
X394.0000Y70.9200
X394.0000Y52.0000
X394.0000Y46.9200
X394.0000Y28.0000
X394.0000Y22.9200
M30
